<svg id="goals_icon" xmlns="http://www.w3.org/2000/svg" width="19.832" height="25.349" viewBox="0 0 19.832 25.349">
  <path id="Path_2681" data-name="Path 2681" d="M42.884,39.292H35.375a.92.92,0,0,0-.919.919V57.222a.92.92,0,0,0,.919.919H47.668a.919.919,0,0,0,.919-.919V44.831a.919.919,0,0,0-.919-.919H44.722a.92.92,0,0,1-.919-.919V40.211a.919.919,0,0,0-.919-.919" transform="translate(-28.756 -32.791)" fill="#fff" opacity="0.4"/>
  <path id="Path_2682" data-name="Path 2682" d="M3.874,6.587A1.911,1.911,0,0,1,5.784,4.678h8.175a1,1,0,0,1,.177.01V2.758a.881.881,0,0,0-.88-.881H9.279a2.248,2.248,0,0,0-4.433,0H.88A.881.881,0,0,0,0,2.758V19.844a.88.88,0,0,0,.88.88H3.87Zm3.2-5.215a.884.884,0,1,1-.885.885.885.885,0,0,1,.885-.885" transform="translate(0 -0.001)" fill="#fff"/>
  <path id="Path_2683" data-name="Path 2683" d="M101.144,40.479v2.3a.3.3,0,0,0,.295.295h2.5a.295.295,0,0,0,.2-.515l-2.5-2.3a.295.295,0,0,0-.495.218" transform="translate(-84.41 -33.532)" fill="#fff" opacity="0.4"/>
</svg>
