<svg id="mass_comm_icon" xmlns="http://www.w3.org/2000/svg" xmlns:xlink="http://www.w3.org/1999/xlink" width="25.587" height="25.484" viewBox="0 0 25.587 25.484">
  <defs>
    <clipPath id="clip-path">
      <rect id="Rectangle_1499" data-name="Rectangle 1499" width="25.587" height="25.484" fill="#fff"/>
    </clipPath>
  </defs>
  <g id="Group_639" data-name="Group 639" clip-path="url(#clip-path)">
    <path id="Path_2684" data-name="Path 2684" d="M48.183,0a1.446,1.446,0,0,0,0,2.892,10.615,10.615,0,0,1,10.6,10.6,1.446,1.446,0,0,0,2.892,0A13.511,13.511,0,0,0,48.183,0" transform="translate(-36.092 0)" fill="#fff" opacity="0.4"/>
    <path id="Path_2685" data-name="Path 2685" d="M53.08,32.842a1.446,1.446,0,0,0,2.892,0,7.8,7.8,0,0,0-7.789-7.789h0a1.446,1.446,0,0,0,0,2.892,4.9,4.9,0,0,1,4.9,4.9" transform="translate(-36.092 -19.347)" fill="#fff" opacity="0.4"/>
    <path id="Path_2686" data-name="Path 2686" d="M28.985,53.219a1.216,1.216,0,0,0-1.216,1.216,1.2,1.2,0,0,0,.039.291l-.039.058-6.028,4.038L23.7,60.784l.888.888,4.038-6.028.053-.036a1.2,1.2,0,0,0,.3.043,1.216,1.216,0,0,0,0-2.432" transform="translate(-16.79 -41.097)" fill="#fff" opacity="0.4"/>
    <path id="Path_2687" data-name="Path 2687" d="M2.816,39.8a9.617,9.617,0,0,0,13.6,13.6L2.816,39.8" transform="translate(0 -30.738)" fill="#fff"/>
  </g>
</svg>
