<svg id="tasks_icon" xmlns="http://www.w3.org/2000/svg" xmlns:xlink="http://www.w3.org/1999/xlink" width="19.228" height="25.638" viewBox="0 0 19.228 25.638">
  <defs>
    <clipPath id="clip-path">
      <rect id="Rectangle_2783" data-name="Rectangle 2783" width="19.228" height="25.638" fill="none"/>
    </clipPath>
  </defs>
  <g id="Group_1951" data-name="Group 1951">
    <g id="Group_1950" data-name="Group 1950" clip-path="url(#clip-path)">
      <g id="Group_1954" data-name="Group 1954">
        <path id="Path_3290" data-name="Path 3290" d="M12.822,3.2a3.2,3.2,0,0,0-6.41,0H4.81V7.211a.8.8,0,0,0,.8.8h8.012a.8.8,0,0,0,.8-.8V3.2Zm3.2,0v1.6a1.605,1.605,0,0,1,1.6,1.6V22.433a1.605,1.605,0,0,1-1.6,1.6H3.2a1.606,1.606,0,0,1-1.6-1.6V6.409a1.606,1.606,0,0,1,1.6-1.6h0V3.2h0A3.207,3.207,0,0,0,0,6.409V22.433a3.207,3.207,0,0,0,3.2,3.2H16.027a3.207,3.207,0,0,0,3.2-3.2V6.409a3.207,3.207,0,0,0-3.2-3.2m-6.41,9.328h6.05c.48,0,.48,1.2,0,1.2H9.618c-.538,0-.538-1.2,0-1.2m0,3.2h6.05c.48,0,.48,1.2,0,1.2H9.618c-.538,0-.538-1.2,0-1.2m0,3.2h6.05c.48,0,.48,1.2,0,1.2H9.618c-.538,0-.538-1.2,0-1.2M8.015,3.2a1.6,1.6,0,0,1,3.2,0Z" fill="#fff"/>
      </g>
    </g>
  </g>
  <g id="check_icon" transform="translate(4.247 11.404)">
    <path id="Path_3011" data-name="Path 3011" d="M-6194.916-6120.85l1.026.911,1.731-2.418" transform="translate(6194.916 6122.357)" fill="none" stroke="#fff" stroke-linecap="round" stroke-width="1"/>
  </g>
  <g id="check_icon-2" data-name="check_icon" transform="translate(4.247 14.568)">
    <path id="Path_3011-2" data-name="Path 3011" d="M-6194.916-6120.85l1.026.911,1.731-2.418" transform="translate(6194.916 6122.357)" fill="none" stroke="#fff" stroke-linecap="round" stroke-width="1"/>
  </g>
  <g id="check_icon-3" data-name="check_icon" transform="translate(4.247 17.731)">
    <path id="Path_3011-3" data-name="Path 3011" d="M-6194.916-6120.85l1.026.911,1.731-2.418" transform="translate(6194.916 6122.357)" fill="none" stroke="#fff" stroke-linecap="round" stroke-width="1"/>
  </g>
</svg>
